<?xml version="1.0" encoding="utf-8"?>
<svg viewBox="32.694 225.203 104.414 89.193" width="104.414" height="89.193" xmlns="http://www.w3.org/2000/svg">
  <path d="M 31.5998997253418 166.91239499511718 L 21.427199725341797 169.8226949951172 Q 20.919899725341796 169.92949499511718 20.692949725341798 169.7158949951172 Q 20.465999725341796 169.50229499511718 20.465999725341796 168.9949949951172 L 20.465999725341796 165.47059499511718 Q 20.465999725341796 164.9632949951172 20.692949725341798 164.70964499511717 Q 20.919899725341796 164.45599499511718 21.427199725341797 164.3758949951172 L 29.090099725341798 162.31999499511718 Q 29.357099725341797 162.26659499511717 29.450549725341798 162.15979499511718 Q 29.5439997253418 162.0529949951172 29.5439997253418 161.8126949951172 Q 29.5439997253418 161.57239499511718 29.450549725341798 161.4655949951172 Q 29.357099725341797 161.3587949951172 29.090099725341798 161.30539499511718 L 21.427199725341797 159.24949499511717 Q 20.919899725341796 159.1693949951172 20.692949725341798 158.9157449951172 Q 20.465999725341796 158.66209499511717 20.465999725341796 158.1547949951172 L 20.465999725341796 154.63039499511717 Q 20.465999725341796 154.12309499511719 20.692949725341798 153.9094949951172 Q 20.919899725341796 153.6958949951172 21.427199725341797 153.80269499511718 L 31.5998997253418 156.71299499511719 Q 33.2552997253418 157.1935949951172 34.1230497253418 158.0346449951172 Q 34.9907997253418 158.8756949951172 34.9907997253418 160.85149499511718 L 34.9907997253418 162.7738949951172 Q 34.9907997253418 164.74969499511718 34.1230497253418 165.59074499511718 Q 33.2552997253418 166.43179499511717 31.5998997253418 166.91239499511718 Z M 30.8789997253418 164.6695949951172 Q 31.546499725341796 164.48269499511719 31.987049725341798 164.0688449951172 Q 32.4275997253418 163.6549949951172 32.4275997253418 162.7738949951172 L 32.4275997253418 160.85149499511718 Q 32.4275997253418 159.97039499511718 31.987049725341798 159.5965949951172 Q 31.546499725341796 159.2227949951172 30.8789997253418 159.0358949951172 L 22.868999725341798 156.7396949951172 L 22.868999725341798 157.0066949951172 L 30.825599725341796 159.30289499511719 Q 31.3862997253418 159.4630949951172 31.7734497253418 159.7834949951172 Q 32.1605997253418 160.10389499511717 32.1605997253418 160.85149499511718 L 32.1605997253418 162.7738949951172 Q 32.1605997253418 163.5214949951172 31.7734497253418 163.88194499511718 Q 31.3862997253418 164.2423949951172 30.825599725341796 164.4025949951172 L 22.868999725341798 166.6987949951172 L 22.868999725341798 166.9657949951172 Z M 39.50247492675781 171.3979949951172 Q 38.99517492675781 171.3979949951172 38.76822492675781 171.1710449951172 Q 38.541274926757815 170.94409499511718 38.541274926757815 170.4367949951172 L 38.541274926757815 167.2594949951172 Q 38.541274926757815 166.75219499511718 38.76822492675781 166.5252449951172 Q 38.99517492675781 166.29829499511717 39.50247492675781 166.29829499511717 L 42.14577492675781 166.29829499511717 L 42.14577492675781 157.3270949951172 L 39.50247492675781 157.3270949951172 Q 38.99517492675781 157.3270949951172 38.76822492675781 157.10014499511718 Q 38.541274926757815 156.8731949951172 38.541274926757815 156.36589499511717 L 38.541274926757815 153.1351949951172 Q 38.541274926757815 152.62789499511717 38.76822492675781 152.4009449951172 Q 38.99517492675781 152.1739949951172 39.50247492675781 152.1739949951172 L 50.876674926757815 152.1739949951172 Q 51.383974926757816 152.1739949951172 51.61092492675781 152.4009449951172 Q 51.83787492675781 152.62789499511717 51.83787492675781 153.1351949951172 L 51.83787492675781 156.36589499511717 Q 51.83787492675781 156.8731949951172 51.61092492675781 157.10014499511718 Q 51.383974926757816 157.3270949951172 50.876674926757815 157.3270949951172 L 48.286774926757815 157.3270949951172 L 48.286774926757815 166.29829499511717 L 50.876674926757815 166.29829499511717 Q 51.383974926757816 166.29829499511717 51.61092492675781 166.5252449951172 Q 51.83787492675781 166.75219499511718 51.83787492675781 167.2594949951172 L 51.83787492675781 170.4367949951172 Q 51.83787492675781 170.94409499511718 51.61092492675781 171.1710449951172 Q 51.383974926757816 171.3979949951172 50.876674926757815 171.3979949951172 Z M 49.434874926757814 168.9949949951172 L 49.434874926757814 168.7279949951172 L 45.34977492675782 168.7279949951172 L 45.34977492675782 154.84399499511719 L 49.434874926757814 154.84399499511719 L 49.434874926757814 154.5769949951172 L 40.944274926757814 154.5769949951172 L 40.944274926757814 154.84399499511719 L 45.082774926757814 154.84399499511719 L 45.082774926757814 168.7279949951172 L 40.944274926757814 168.7279949951172 L 40.944274926757814 168.9949949951172 Z M 57.81814047241211 163.30789499511718 Q 57.81814047241211 162.58699499511718 57.938290472412106 161.9728949951172 Q 58.05844047241211 161.3587949951172 58.24534047241211 160.8247949951172 L 59.95414047241211 156.4459949951172 Q 60.22114047241211 155.7784949951172 60.54154047241211 155.3112449951172 Q 60.86194047241211 154.84399499511719 61.66294047241211 154.84399499511719 L 64.27954047241211 154.84399499511719 Q 65.02714047241211 154.84399499511719 65.3475404724121 155.3112449951172 Q 65.66794047241211 155.7784949951172 65.96164047241211 156.4726949951172 L 67.80394047241211 160.8247949951172 Q 67.99084047241212 161.3587949951172 68.11099047241211 161.9728949951172 Q 68.23114047241211 162.58699499511718 68.23114047241211 163.30789499511718 L 68.23114047241211 164.13559499511717 L 57.81814047241211 164.13559499511717 Z M 62.09014047241211 157.7809949951172 L 60.83524047241211 161.83939499511717 L 65.02714047241211 161.83939499511717 L 63.77224047241211 157.7809949951172 Q 63.66544047241211 157.54069499511718 63.54529047241211 157.43389499511719 Q 63.42514047241211 157.3270949951172 63.26494047241211 157.3270949951172 L 62.59744047241211 157.3270949951172 Q 62.437240472412114 157.3270949951172 62.31709047241211 157.43389499511719 Q 62.19694047241211 157.54069499511718 62.09014047241211 157.7809949951172 Z M 68.23114047241211 168.9949949951172 L 68.4981404724121 168.9949949951172 L 68.4981404724121 163.30789499511718 Q 68.4981404724121 162.56029499511718 68.37799047241211 161.9328449951172 Q 68.25784047241211 161.30539499511718 68.04424047241211 160.71799499511718 L 66.2019404724121 156.36589499511717 Q 65.88154047241211 155.5915949951172 65.52109047241211 155.08429499511718 Q 65.16064047241211 154.5769949951172 64.27954047241211 154.5769949951172 L 61.66294047241211 154.5769949951172 Q 60.75514047241211 154.5769949951172 60.38134047241211 155.08429499511718 Q 60.00754047241211 155.5915949951172 59.71384047241211 156.3391949951172 L 58.00504047241211 160.71799499511718 Q 57.79144047241211 161.30539499511718 57.67129047241211 161.9328449951172 Q 57.55114047241211 162.56029499511718 57.55114047241211 163.30789499511718 L 57.55114047241211 168.9949949951172 L 57.81814047241211 168.9949949951172 L 57.81814047241211 164.4025949951172 L 68.23114047241211 164.4025949951172 Z M 60.56824047241211 170.4367949951172 Q 60.56824047241211 170.94409499511718 60.34129047241211 171.1710449951172 Q 60.11434047241211 171.3979949951172 59.60704047241211 171.3979949951172 L 55.68214047241211 171.3979949951172 Q 55.17484047241211 171.3979949951172 54.94789047241211 171.1710449951172 Q 54.72094047241211 170.94409499511718 54.72094047241211 170.4367949951172 L 54.72094047241211 163.3879949951172 Q 54.72094047241211 162.58699499511718 54.97459047241211 161.54569499511717 Q 55.22824047241211 160.5043949951172 55.76224047241211 159.11599499511718 L 58.08514047241211 153.0550949951172 Q 58.24534047241211 152.6011949951172 58.57909047241211 152.38759499511718 Q 58.91284047241211 152.1739949951172 59.446840472412106 152.1739949951172 L 66.6291404724121 152.1739949951172 Q 67.1364404724121 152.1739949951172 67.47019047241211 152.38759499511718 Q 67.80394047241211 152.6011949951172 67.96414047241211 153.0550949951172 L 70.28704047241212 159.11599499511718 Q 70.82104047241211 160.5043949951172 71.07469047241212 161.54569499511717 Q 71.32834047241211 162.58699499511718 71.32834047241211 163.3879949951172 L 71.32834047241211 170.4367949951172 Q 71.32834047241211 170.94409499511718 71.1013904724121 171.1710449951172 Q 70.87444047241212 171.3979949951172 70.3671404724121 171.3979949951172 L 66.3354404724121 171.3979949951172 Q 65.80144047241211 171.3979949951172 65.54779047241212 171.1710449951172 Q 65.29414047241211 170.94409499511718 65.29414047241211 170.4367949951172 L 65.29414047241211 166.6987949951172 L 60.56824047241211 166.6987949951172 Z M 78.13619310302734 154.79059499511717 Q 78.00269310302734 154.65709499511718 77.92259310302734 154.6036949951172 Q 77.84249310302735 154.55029499511718 77.73569310302734 154.55029499511718 Q 77.62889310302734 154.55029499511718 77.52209310302734 154.63039499511717 Q 77.41529310302734 154.7104949951172 77.41529310302734 154.8706949951172 L 77.41529310302734 168.9949949951172 L 77.68229310302735 168.9949949951172 L 77.68229310302735 154.92409499511717 Q 77.68229310302735 154.8973949951172 77.69564310302735 154.8706949951172 Q 77.70899310302734 154.84399499511719 77.73569310302734 154.84399499511719 Q 77.76239310302735 154.84399499511719 77.80244310302734 154.8706949951172 Q 77.84249310302735 154.8973949951172 77.86919310302734 154.92409499511717 L 87.96179310302735 166.2448949951172 L 87.96179310302735 168.9949949951172 L 88.22879310302734 168.9949949951172 L 88.22879310302734 154.5769949951172 L 87.96179310302735 154.5769949951172 L 87.96179310302735 165.8443949951172 Z M 79.57799310302734 171.3979949951172 L 75.57299310302734 171.3979949951172 Q 75.06569310302734 171.3979949951172 74.83874310302734 171.1710449951172 Q 74.61179310302734 170.94409499511718 74.61179310302734 170.4367949951172 L 74.61179310302734 153.1351949951172 Q 74.61179310302734 152.62789499511717 74.83874310302734 152.4009449951172 Q 75.06569310302734 152.1739949951172 75.57299310302734 152.1739949951172 L 78.34979310302734 152.1739949951172 Q 78.85709310302734 152.1739949951172 79.21754310302734 152.33419499511717 Q 79.57799310302734 152.49439499511718 79.92509310302735 152.8948949951172 L 85.10489310302734 158.82229499511718 L 85.10489310302734 153.1351949951172 Q 85.10489310302734 152.62789499511717 85.33184310302734 152.4009449951172 Q 85.55879310302734 152.1739949951172 86.06609310302734 152.1739949951172 L 90.07109310302735 152.1739949951172 Q 90.57839310302734 152.1739949951172 90.80534310302734 152.4009449951172 Q 91.03229310302734 152.62789499511717 91.03229310302734 153.1351949951172 L 91.03229310302734 170.4367949951172 Q 91.03229310302734 170.94409499511718 90.80534310302734 171.1710449951172 Q 90.57839310302734 171.3979949951172 90.07109310302735 171.3979949951172 L 86.06609310302734 171.3979949951172 Q 85.55879310302734 171.3979949951172 85.33184310302734 171.1710449951172 Q 85.10489310302734 170.94409499511718 85.10489310302734 170.4367949951172 L 85.10489310302734 167.1526949951172 L 80.53919310302734 161.6257949951172 L 80.53919310302734 170.4367949951172 Q 80.53919310302734 170.94409499511718 80.31224310302734 171.1710449951172 Q 80.08529310302734 171.3979949951172 79.57799310302734 171.3979949951172 Z M 95.70413188476563 174.1480949951172 Q 95.19683188476563 174.1480949951172 94.96988188476563 173.92114499511717 Q 94.74293188476562 173.6941949951172 94.74293188476562 173.1868949951172 L 94.74293188476562 169.60909499511718 Q 94.74293188476562 169.1017949951172 94.96988188476563 168.8748449951172 Q 95.19683188476563 168.64789499511718 95.70413188476563 168.64789499511718 L 109.64153188476563 168.64789499511718 Q 110.14883188476563 168.64789499511718 110.37578188476563 168.8748449951172 Q 110.60273188476563 169.1017949951172 110.60273188476563 169.60909499511718 L 110.60273188476563 173.1868949951172 Q 110.60273188476563 173.6941949951172 110.37578188476563 173.92114499511717 Q 110.14883188476563 174.1480949951172 109.64153188476563 174.1480949951172 Z M 108.19973188476563 171.2644949951172 L 97.14593188476563 171.2644949951172 L 97.14593188476563 171.53149499511719 L 108.19973188476563 171.53149499511719 Z M 112.60458459472656 172.8397949951172 L 115.80858459472657 150.7321949951172 Q 115.86198459472656 150.22489499511718 116.06223459472656 149.9979449951172 Q 116.26248459472656 149.77099499511718 116.76978459472656 149.77099499511718 L 120.64128459472656 149.77099499511718 Q 121.14858459472656 149.77099499511718 121.40223459472656 149.9979449951172 Q 121.65588459472656 150.22489499511718 121.60248459472656 150.7321949951172 L 118.39848459472657 172.8397949951172 Q 118.34508459472656 173.34709499511717 118.14483459472656 173.5740449951172 Q 117.94458459472656 173.80099499511718 117.43728459472656 173.80099499511718 L 113.56578459472657 173.80099499511718 Q 113.05848459472656 173.80099499511718 112.80483459472656 173.5740449951172 Q 112.55118459472656 173.34709499511717 112.60458459472656 172.8397949951172 Z M 118.37178459472656 152.1739949951172 L 115.59498459472657 171.3979949951172 L 115.86198459472656 171.3979949951172 L 118.63878459472656 152.1739949951172 Z" transform="matrix(0.9967949986457825, 0, 0, 1.3116669654846191, 14.689743041992188, 57.65812683105469)" style="fill: rgb(51, 51, 51); paint-order: fill markers; stroke: rgb(102, 252, 241); stroke-width: 1.06627px; white-space: pre; isolation: isolate;"/>
</svg>